<?xml version="1.0" encoding="utf-8"?>
<!-- Generator: Adobe Illustrator 25.4.1, SVG Export Plug-In . SVG Version: 6.00 Build 0)  -->
<svg version="1.1" xmlns="http://www.w3.org/2000/svg" xmlns:xlink="http://www.w3.org/1999/xlink" x="0px" y="0px"
	 viewBox="0 0 256 256" style="enable-background:new 0 0 256 256;" xml:space="preserve">
<g id="Layer_1">
</g>
<g id="Layer_2">
	<path d="M22.17,160.33c2.42,7.44,5.68,14.66,9.71,21.43c4.32,7.27,9.48,14.01,15.35,20.02l28.62-27.95
		c-3.65-3.74-6.87-7.94-9.57-12.49c-2.52-4.24-4.55-8.74-6.06-13.37L22.17,160.33z"/>
	<path d="M62,214.36c6.98,4.91,14.56,8.97,22.54,12.07l14.5-37.28c-4.97-1.93-9.69-4.46-14.03-7.51L62,214.36z"/>
	<path d="M106,232.29c4.27,0.7,8.62,1.14,12.93,1.31c3.21,0.13,6.47,0.11,9.69-0.06l-2.08-39.95c-2,0.1-4.03,0.12-6.03,0.04
		c-2.69-0.11-5.41-0.38-8.07-0.81L106,232.29z"/>
	<path d="M139.2,191.67l9.82,38.78c3.98-1.01,7.95-2.27,11.8-3.74l-14.29-37.36C144.14,190.27,141.67,191.05,139.2,191.67z"/>
	<path d="M162.92,180.25l24.13,31.9c2.29-1.73,4.53-3.57,6.66-5.48l-26.64-29.84C165.74,178.03,164.35,179.17,162.92,180.25z"/>
	<path d="M214.18,73.56c3.52,5.93,6.42,12.11,8.71,18.5l19.03-6.26l-22.59,63.42L163.5,111.6l21.36-7.03
		c-1.37-3.65-3.05-7.19-5.07-10.6c-9-15.16-23.36-25.91-40.44-30.27c-17.08-4.36-34.84-1.8-50,7.2
		c-22.48,13.34-34.98,38.73-31.86,64.69l-39.71,4.78c-0.79-6.56-0.96-13.09-0.54-19.53c2.24-34.49,21.28-66.29,51.69-84.34
		C119.19,6.68,184.35,23.3,214.18,73.56z"/>
</g>
</svg>
