<svg xmlns="http://www.w3.org/2000/svg" viewBox="0 0 265.12 240.56"><defs><style>.cls-1{fill:#231f20;}.cls-1,.cls-2{fill-rule:evenodd;}.cls-2{stroke:#231f20;stroke-linecap:round;stroke-linejoin:round;stroke-width:5px;}</style></defs><g id="Layer_2" data-name="Layer 2"><g id="Layer_1-2" data-name="Layer 1"><path class="cls-1" d="M240.12,94.45H156v18.81h72.46a15,15,0,0,1,15,15v78.49a15,15,0,0,1-15,15H156v1.75a30.93,30.93,0,0,1-5.59,17.06h89.72a25,25,0,0,0,25-25V119.45A25,25,0,0,0,240.12,94.45ZM121,2.5H25a25,25,0,0,0-25,25v188a25,25,0,0,0,25,25h96a25,25,0,0,0,25-25V27.5A25,25,0,0,0,121,2.5ZM72,229.72a15.32,15.32,0,1,1,15.32-15.31A15.31,15.31,0,0,1,72,229.72Zm55.2-55.83a15,15,0,0,1-15,15H33.79a15,15,0,0,1-15-15V39.14a15,15,0,0,1,15-15h78.4a15,15,0,0,1,15,15Z"/><path class="cls-2" d="M182.56,13.2c30.74,0,44.49,29.11,44.49,47.72h12.13L224.62,76.28,209.25,60.92s11.33-.54,11.33,0c0-21.84-20-41.79-38-41.25V31l-17-15.37L180.94,2.68S182.56.25,182.56,13.2Z"/></g></g></svg>